<svg aria-hidden="true" style="position: absolute; width: 0; height: 0; overflow: hidden;" version="1.1" xmlns="http://www.w3.org/2000/svg" xmlns:xlink="http://www.w3.org/1999/xlink">
<defs>
<symbol id="icon-Vector" viewBox="0 0 32 32">
<path fill="#6dd627" style="fill: var(--color1, #6dd627)" d="M8.207 29.516l-6.121-4.164c-0.543-0.369-1.004-0.847-1.354-1.403s-0.581-1.179-0.679-1.828c-0.098-0.65-0.060-1.313 0.11-1.947s0.47-1.227 0.881-1.74c0.79-0.987 1.939-1.62 3.195-1.76s2.517 0.225 3.504 1.015l3.425 2.741c0.159 0.127 0.362 0.187 0.564 0.165s0.389-0.122 0.518-0.279l16.066-19.557c0.34-0.413 0.826-0.68 1.357-0.744s1.067 0.079 1.495 0.4c0.413 0.309 0.696 0.762 0.794 1.268s0.003 1.032-0.265 1.473l-14.886 24.493c-0.428 0.704-0.994 1.313-1.665 1.791s-1.432 0.815-2.236 0.989c-0.805 0.175-1.637 0.184-2.445 0.027s-1.577-0.477-2.258-0.94z"></path>
</symbol>
</defs>
</svg>
